<svg width="157" height="200" viewBox="0 0 157 200" fill="none" xmlns="http://www.w3.org/2000/svg">
<path d="M78.5 0C57.6881 0.0245748 37.7356 8.31051 23.0193 23.0402C8.30302 37.7699 0.0246359 57.7405 8.3516e-05 78.5714C-0.024843 95.5945 5.53062 112.156 15.8142 125.714C15.8142 125.714 17.9552 128.536 18.3048 128.943L78.5 200L138.724 128.907C139.038 128.529 141.186 125.714 141.186 125.714L141.193 125.693C151.471 112.14 157.024 95.5866 157 78.5714C156.975 57.7405 148.697 37.7699 133.981 23.0402C119.264 8.31051 99.3119 0.0245748 78.5 0V0ZM78.5 107.143C72.8542 107.143 67.3353 105.467 62.641 102.328C57.9467 99.1882 54.288 94.726 52.1275 89.5052C49.9669 84.2845 49.4016 78.5397 50.5031 72.9974C51.6045 67.4551 54.3232 62.3642 58.3153 58.3684C62.3075 54.3726 67.3938 51.6514 72.9311 50.549C78.4683 49.4466 84.2079 50.0124 89.4239 52.1749C94.6399 54.3374 99.098 57.9994 102.235 62.698C105.371 67.3965 107.045 72.9205 107.045 78.5714C107.036 86.1461 104.025 93.4079 98.6742 98.764C93.323 104.12 86.0678 107.133 78.5 107.143V107.143Z" fill="#EAC158"/>
</svg>
