<svg width="201" height="200" viewBox="0 0 201 200" fill="none" xmlns="http://www.w3.org/2000/svg">
<path fill-rule="evenodd" clip-rule="evenodd" d="M23.5684 6.37713C25.7556 4.19324 28.3819 2.49911 31.2733 1.407C34.1648 0.3149 37.2553 -0.150237 40.3401 0.0424152C43.4249 0.235068 46.4336 1.08111 49.1667 2.52448C51.8998 3.96785 54.2949 5.97558 56.1934 8.41463L78.6309 37.2396C82.7434 42.5271 84.1934 49.4146 82.5684 55.9146L75.7309 83.2896C75.3774 84.7075 75.3965 86.1927 75.7863 87.601C76.1762 89.0093 76.9236 90.2929 77.9559 91.3271L108.668 122.04C109.704 123.074 110.99 123.823 112.4 124.213C113.811 124.603 115.299 124.62 116.718 124.265L144.081 117.427C147.289 116.625 150.637 116.563 153.872 117.245C157.107 117.927 160.145 119.336 162.756 121.365L191.581 143.79C201.943 151.852 202.893 167.165 193.618 176.427L180.693 189.352C171.443 198.602 157.618 202.665 144.731 198.127C111.746 186.521 81.7968 167.638 57.1059 142.877C32.347 118.19 13.4635 88.2454 1.85589 55.2646C-2.66911 42.3896 1.39339 28.5521 10.6434 19.3021L23.5684 6.37713Z" fill="#EAC158"/>
</svg>
