<svg width="200" height="200" viewBox="0 0 200 200" fill="none" xmlns="http://www.w3.org/2000/svg">
<path d="M0 100C0 73.4783 10.5357 48.043 29.2893 29.2893C48.043 10.5357 73.4783 0 100 0C126.522 0 151.957 10.5357 170.711 29.2893C189.464 48.043 200 73.4783 200 100C200 126.522 189.464 151.957 170.711 170.711C151.957 189.464 126.522 200 100 200C73.4783 200 48.043 189.464 29.2893 170.711C10.5357 151.957 0 126.522 0 100ZM93.75 13.4625C85.375 16.0125 77.0625 23.7125 70.1625 36.65C67.8892 40.9512 65.9339 45.4131 64.3125 50H93.75V13.4625ZM51.125 50C53.2084 43.3602 55.8859 36.9217 59.125 30.7625C61.2863 26.6757 63.7824 22.7749 66.5875 19.1C51.1 25.5228 37.7751 36.2453 28.1875 50H51.125ZM43.85 93.75C44.225 82.7875 45.575 72.275 47.75 62.5H20.925C16.264 72.3131 13.4827 82.9126 12.725 93.75H43.85ZM60.5875 62.5C58.1289 72.7475 56.7134 83.2175 56.3625 93.75H93.75V62.5H60.5875ZM106.25 62.5V93.75H143.625C143.279 83.2179 141.867 72.7479 139.413 62.5H106.25ZM56.375 106.25C56.7218 116.782 58.1332 127.252 60.5875 137.5H93.75V106.25H56.375ZM106.25 106.25V137.5H139.413C141.75 127.938 143.237 117.4 143.637 106.25H106.25ZM64.3125 150C66.0375 154.825 68 159.3 70.1625 163.35C77.0625 176.287 85.3875 183.975 93.75 186.538V150H64.3125ZM66.5875 180.9C63.7822 177.225 61.2861 173.324 59.125 169.237C55.886 163.078 53.2085 156.64 51.125 150H28.1875C37.7746 163.755 51.0997 174.478 66.5875 180.9ZM47.75 137.5C45.4896 127.226 44.184 116.765 43.85 106.25H12.725C13.5 117.375 16.3625 127.912 20.925 137.5H47.75ZM133.413 180.9C148.9 174.478 162.225 163.755 171.812 150H148.875C146.791 156.64 144.114 163.078 140.875 169.237C138.714 173.325 136.218 177.226 133.413 180.9ZM106.25 150V186.538C114.625 183.988 122.937 176.287 129.837 163.35C132 159.3 133.963 154.825 135.688 150H106.25ZM152.25 137.5H179.075C183.637 127.912 186.5 117.375 187.275 106.25H156.15C155.816 116.765 154.511 127.226 152.25 137.5ZM187.275 93.75C186.517 82.9127 183.736 72.3132 179.075 62.5H152.25C154.425 72.275 155.775 82.7875 156.15 93.75H187.275ZM140.875 30.7625C143.962 36.5625 146.65 43.0125 148.875 50H171.812C162.225 36.2448 148.9 25.5222 133.413 19.1C136.138 22.65 138.638 26.575 140.875 30.7625ZM135.688 50C134.066 45.4131 132.111 40.9511 129.837 36.65C122.937 23.7125 114.625 16.025 106.25 13.4625V50H135.688Z" fill="#EAC158"/>
</svg>
